# xmcd
#
# Track frame offsets:
#	150
#	20576
#	39594
#	58532
#	74378
#	91553
#	109288
#	141662
#	155707
#	175812
#	196521
#	214468
#	237939
#	251062
#	263406
#	274659
#	306980
#
# Disc length: 4394 seconds
#
# Revision: 1
# Processed by: cddbd v1.5.2PL0 Copyright (c) Steve Scherf et al.
# Submitted via: audiograbber 1.83.01
#
DISCID=f6112811
DTITLE=Sophie Zelmani - Decade Of Dreams
DYEAR=2006
DGENRE=Country
TTITLE0=Dreamer
TTITLE1=I Can't Change (New Song)
TTITLE2=Going Home
TTITLE3=Precious Burden
TTITLE4=People
TTITLE5=Bitter Kind (New Song)
TTITLE6=Oh Dear
TTITLE7=Stand By
TTITLE8=Happier Man
TTITLE9=Leaving
TTITLE10=Nostalgia
TTITLE11=So Long (Aranjuez Version)
TTITLE12=Gone With The Madness
TTITLE13=Fade
TTITLE14=Tp Know You
TTITLE15=Always You (Ten Years Later)
TTITLE16=Got To Stop
EXTD=
EXTT0=
EXTT1=
EXTT2=
EXTT3=
EXTT4=
EXTT5=
EXTT6=
EXTT7=
EXTT8=
EXTT9=
EXTT10=
EXTT11=
EXTT12=
EXTT13=
EXTT14=
EXTT15=
EXTT16=
PLAYORDER=
